<?xml version="1.0" encoding="utf-8"?>
<svg viewBox="90 0 120 111.3994" xmlns="http://www.w3.org/2000/svg">
  <g id="SvgjsG1305" featurekey="mugSzh-0" transform="matrix(0.26068535447120667, 0, 0, 0.26068535447120667, 83.26442718505858, -11.035892486572267)" fill="#39e991">
    <g xmlns="http://www.w3.org/2000/svg">
      <path d="M287.593,240.518c1.006,0,2.02-0.225,2.946-0.692l164.845-82.422c1.578-0.789,2.777-2.173,3.324-3.855   c0.547-1.674,0.402-3.493-0.41-5.063c-33.235-64.57-99.341-106.151-168.612-106.151c-3.839-0.056-7.502,2.616-7.526,6.56   L281,233.886c-0.016,2.294,1.159,4.427,3.107,5.642C285.17,240.188,286.377,240.518,287.593,240.518z M295.304,55.631   c59.362,2.197,117.508,38.708,148.103,93.015l-149.149,74.575L295.304,55.631z"/>
      <path d="M70.212,421.332l1.779,2.391c1.296,1.723,3.276,2.632,5.28,2.632c1.376,0,2.761-0.427,3.952-1.32   c2.906-2.181,3.501-6.319,1.312-9.232l-1.682-2.262c-27.367-37.356-41.831-81.65-41.831-128.101   c0-117.436,93.78-213.38,210.386-216.882V285.44c0,2.294,1.191,4.419,3.139,5.618c1.956,1.207,4.403,1.296,6.431,0.266   l193.491-98.11c13.611,28.904,20.509,59.893,20.509,92.226c0,25.773-4.475,50.999-13.305,74.985   c-1.256,3.421,0.499,7.212,3.912,8.468c3.389,1.232,7.204-0.491,8.468-3.912c9.361-25.451,14.11-52.214,14.11-79.541   c0-36.647-8.355-71.677-24.839-104.115c-1.634-3.252-5.618-4.54-8.854-2.898l-189.877,96.275V61.869   c0-3.638-2.954-6.592-6.592-6.592c-126.909,0-230.163,103.253-230.163,230.163C25.837,334.716,41.179,381.707,70.212,421.332z"/>
      <path d="M347.397,469.667h47.988h50.918h33.267c3.638,0,6.592-2.954,6.592-6.592s-2.954-6.592-6.592-6.592h-26.675v-201.42   c0-3.638-2.954-6.592-6.592-6.592h-50.918c-3.638,0-6.592,2.954-6.592,6.592v201.42h-34.804V300.033   c0-3.638-2.954-6.592-6.592-6.592h-50.918c-3.638,0-6.592,2.954-6.592,6.592v156.449h-34.804V327.392   c0-3.638-2.954-6.592-6.592-6.592h-50.918c-3.638,0-6.592,2.954-6.592,6.592v129.091h-34.804V353.72   c0-3.638-2.954-6.592-6.592-6.592H98.665c-3.638,0-6.592,2.954-6.592,6.592v102.762H54.065c-3.638,0-6.592,2.954-6.592,6.592   s2.954,6.592,6.592,6.592h44.6h50.918h47.988h50.918h47.988H347.397z M401.978,261.655h37.734v194.827h-37.734V261.655z    M303.071,306.625h37.734v149.857h-37.734V306.625z M142.991,456.482h-37.734v-96.17h37.734V456.482z M241.898,456.482h-37.734   V333.984h37.734V456.482z"/>
    </g>
  </g>
</svg>