<?xml version="1.0" encoding="utf-8"?>
<svg viewBox="0 0 300 206.78604189176082" xmlns="http://www.w3.org/2000/svg">
  <g id="SvgjsG1305" featurekey="mugSzh-0" transform="matrix(0.26068535447120667, 0, 0, 0.26068535447120667, 83.26442718505858, -11.035892486572267)" fill="#39e991">
    <g xmlns="http://www.w3.org/2000/svg">
      <path d="M287.593,240.518c1.006,0,2.02-0.225,2.946-0.692l164.845-82.422c1.578-0.789,2.777-2.173,3.324-3.855   c0.547-1.674,0.402-3.493-0.41-5.063c-33.235-64.57-99.341-106.151-168.612-106.151c-3.839-0.056-7.502,2.616-7.526,6.56   L281,233.886c-0.016,2.294,1.159,4.427,3.107,5.642C285.17,240.188,286.377,240.518,287.593,240.518z M295.304,55.631   c59.362,2.197,117.508,38.708,148.103,93.015l-149.149,74.575L295.304,55.631z"/>
      <path d="M70.212,421.332l1.779,2.391c1.296,1.723,3.276,2.632,5.28,2.632c1.376,0,2.761-0.427,3.952-1.32   c2.906-2.181,3.501-6.319,1.312-9.232l-1.682-2.262c-27.367-37.356-41.831-81.65-41.831-128.101   c0-117.436,93.78-213.38,210.386-216.882V285.44c0,2.294,1.191,4.419,3.139,5.618c1.956,1.207,4.403,1.296,6.431,0.266   l193.491-98.11c13.611,28.904,20.509,59.893,20.509,92.226c0,25.773-4.475,50.999-13.305,74.985   c-1.256,3.421,0.499,7.212,3.912,8.468c3.389,1.232,7.204-0.491,8.468-3.912c9.361-25.451,14.11-52.214,14.11-79.541   c0-36.647-8.355-71.677-24.839-104.115c-1.634-3.252-5.618-4.54-8.854-2.898l-189.877,96.275V61.869   c0-3.638-2.954-6.592-6.592-6.592c-126.909,0-230.163,103.253-230.163,230.163C25.837,334.716,41.179,381.707,70.212,421.332z"/>
      <path d="M347.397,469.667h47.988h50.918h33.267c3.638,0,6.592-2.954,6.592-6.592s-2.954-6.592-6.592-6.592h-26.675v-201.42   c0-3.638-2.954-6.592-6.592-6.592h-50.918c-3.638,0-6.592,2.954-6.592,6.592v201.42h-34.804V300.033   c0-3.638-2.954-6.592-6.592-6.592h-50.918c-3.638,0-6.592,2.954-6.592,6.592v156.449h-34.804V327.392   c0-3.638-2.954-6.592-6.592-6.592h-50.918c-3.638,0-6.592,2.954-6.592,6.592v129.091h-34.804V353.72   c0-3.638-2.954-6.592-6.592-6.592H98.665c-3.638,0-6.592,2.954-6.592,6.592v102.762H54.065c-3.638,0-6.592,2.954-6.592,6.592   s2.954,6.592,6.592,6.592h44.6h50.918h47.988h50.918h47.988H347.397z M401.978,261.655h37.734v194.827h-37.734V261.655z    M303.071,306.625h37.734v149.857h-37.734V306.625z M142.991,456.482h-37.734v-96.17h37.734V456.482z M241.898,456.482h-37.734   V333.984h37.734V456.482z"/>
    </g>
  </g>
  <g id="SvgjsG1306" featurekey="PPkF4s-0" transform="matrix(3.6621091365814205, 0, 0, 3.6621091365814205, -5.712890625, 112.98241424560547)" fill="#ffffff">
    <g>
      <path d="M10.63 6.08 q1.33 0.7 2.05 1.89 t0.72 2.65 t-0.67 2.62 t-2.01 1.83 t-3.24 0.67 l-2.76 0 l0 4.26 l-3.16 0 l0 -14.62 l5.94 0 q1.8 0 3.13 0.7 z M9.64 12.3 q0.58 -0.7 0.58 -1.68 q0 -0.64 -0.3 -1.21 t-0.89 -0.93 t-1.41 -0.36 l-2.9 0 l0 4.88 l3.22 0 q1.12 0 1.7 -0.7 z M20.34 11.87 q-0.86 0.21 -1.58 0.99 t-0.72 2.28 l0 4.86 l-2.98 0 l0 -11 l2.98 0 l0 1.46 q0.74 -0.98 1.81 -1.33 t1.95 -0.33 l0 2.92 q-0.6 -0.06 -1.46 0.15 z M25.790000000000006 19.49 q-1.37 -0.77 -2.17 -2.09 t-0.8 -2.88 q0 -1.54 0.8 -2.86 t2.17 -2.09 t2.99 -0.77 t3 0.77 t2.19 2.09 t0.81 2.86 q0 1.56 -0.81 2.88 t-2.19 2.09 t-3 0.77 t-2.99 -0.77 z M27.260000000000005 11.83 q-0.7 0.41 -1.1 1.12 t-0.4 1.57 q0 0.9 0.39 1.61 t1.08 1.12 t1.55 0.41 q0.84 0 1.53 -0.41 t1.09 -1.13 t0.4 -1.6 q0 -0.86 -0.4 -1.57 t-1.09 -1.12 t-1.53 -0.41 q-0.82 0 -1.52 0.41 z M48.49 19.18 q-1.85 1.1 -4.03 1.1 q-2.14 0 -3.95 -1.02 t-2.87 -2.76 t-1.06 -3.8 q0 -2.04 1.06 -3.78 t2.87 -2.76 t3.95 -1.02 q2.16 0 4.02 1.09 t2.92 2.91 l-2.94 1.14 q-0.7 -1 -1.77 -1.64 t-2.23 -0.64 q-1.28 0 -2.36 0.65 t-1.71 1.73 t-0.63 2.32 t0.63 2.33 t1.71 1.74 t2.36 0.65 q1.16 0 2.23 -0.65 t1.77 -1.67 l2.94 1.14 q-1.06 1.84 -2.91 2.94 z M53.580000000000005 20 l0 -14.62 l6.5 0 q1.56 0 2.76 0.64 t1.86 1.8 t0.66 2.64 q0 1.58 -0.8 2.82 t-2.18 1.82 q1.42 1.8 3.78 4.9 l-3.78 0 q-1.28 -1.6 -3.5 -4.56 l-2.16 0 l0 4.56 l-3.14 0 z M60.080000000000005 12.7 q0.82 0 1.48 -0.59 t0.66 -1.65 q0 -0.86 -0.46 -1.6 t-1.68 -0.74 l-3.36 0 l0 4.58 l3.36 0 z M83.48 20 l-3.18 0 l0 -6.98 l-4.48 5.2 l-4.48 -5.2 l0 6.98 l-3.18 0 l0 -15.08 l7.66 8.64 l7.66 -8.64 l0 15.08 z"/>
    </g>
  </g>
  <g id="SvgjsG1307" featurekey="uwAHB0-0" transform="matrix(0.6576640605926514, 0, 0, 0.6576640605926514, 29.93423271179199, 193.39599609375)" fill="#39e991">
    <path d="M3.6 15.04 l6.5 0 l-3.2 -7.76 z M7.64 5.84 l5.96 14.16 l-1.48 0 l-1.54 -3.76 l-7.5 0 l-1.6 3.76 l-1.38 0 l6.18 -14.16 l1.36 0 z M43.236000000000004 5.84 l0 8.5 q0 2.3 0.95 3.54 t2.89 1.28 q3.8 0 3.84 -5.02 l0 -8.3 l1.32 0 l0 8.64 q0 2.78 -1.3 4.32 t-3.86 1.56 q-2.52 0 -3.83 -1.53 t-1.33 -4.25 l0 -8.74 l1.32 0 z M70.744 12.08 q1.54 0 2.38 -0.69 t0.84 -1.83 t-0.82 -1.82 t-2.44 -0.7 l-2.86 0 l0 5.04 l2.9 0 z M70.34400000000001 5.84 q4.9 0 4.94 3.72 q0 3.14 -3.62 3.64 l4.12 6.8 l-1.5 0 l-3.98 -6.72 l-2.46 0 l0 6.72 l-1.32 0 l0 -14.16 l3.82 0 z M90.71199999999999 15.04 l6.5 0 l-3.2 -7.76 z M94.752 5.84 l5.96 14.16 l-1.48 0 l-1.54 -3.76 l-7.5 0 l-1.6 3.76 l-1.38 0 l6.18 -14.16 l1.36 0 z M115.11999999999999 5.84 l8.62 12.4 l0.04 0 l0 -12.4 l1.32 0 l0 14.16 l-1.7 0 l-8.62 -12.4 l-0.04 0 l0 12.4 l-1.32 0 l0 -14.16 l1.7 0 z M140.708 5.84 l0 8.5 q0 2.3 0.95 3.54 t2.89 1.28 q3.8 0 3.84 -5.02 l0 -8.3 l1.32 0 l0 8.64 q0 2.78 -1.3 4.32 t-3.86 1.56 q-2.52 0 -3.83 -1.53 t-1.33 -4.25 l0 -8.74 l1.32 0 z M168.03599999999997 5.48 q2.46 0 3.86 1.78 l-1.14 0.82 q-1.04 -1.4 -2.76 -1.4 q-1.4 0 -2.27 0.72 t-0.91 1.96 q0 1.08 0.66 1.75 t2.3 1.13 q2.16 0.64 2.88 1.13 t1.09 1.21 t0.37 1.8 q0 1.72 -1.23 2.83 t-3.17 1.15 q-3.06 0 -4.6 -2.14 l1.26 -0.84 q1.06 1.76 3.24 1.78 q1.42 0 2.3 -0.79 t0.88 -1.99 q0 -0.7 -0.25 -1.15 t-0.76 -0.78 t-1.3 -0.6 t-1.85 -0.63 q-1.6 -0.52 -2.37 -1.46 t-0.77 -2.4 q0 -1.72 1.29 -2.8 t3.25 -1.08 z M206.03199999999998 12.08 q1.28 0 2.1 -0.63 t0.84 -1.87 q0 -1.16 -0.82 -1.85 t-2.18 -0.69 l-3 0 l0 5.04 l3.06 0 z M205.69199999999998 5.84 q2.16 0 3.36 0.96 t1.24 2.78 q0 1.7 -1.16 2.69 t-3.02 1.01 l-3.14 0 l0 6.72 l-1.32 0 l0 -14.16 l4.04 0 z M228.01999999999998 12.08 q1.54 0 2.38 -0.69 t0.84 -1.83 t-0.82 -1.82 t-2.44 -0.7 l-2.86 0 l0 5.04 l2.9 0 z M227.61999999999998 5.84 q4.9 0 4.94 3.72 q0 3.14 -3.62 3.64 l4.12 6.8 l-1.5 0 l-3.98 -6.72 l-2.46 0 l0 6.72 l-1.32 0 l0 -14.16 l3.82 0 z M246.72799999999998 12.92 q0 2.7 1.66 4.45 t4.34 1.79 q2.7 0 4.34 -1.77 t1.66 -4.47 q0 -2.74 -1.64 -4.47 t-4.38 -1.77 q-2.68 0 -4.32 1.76 t-1.66 4.48 z M252.72799999999998 5.48 q2.16 0 3.82 0.95 t2.57 2.66 t0.93 3.83 q0 3.26 -2.06 5.33 t-5.26 2.11 q-3.22 0 -5.24 -2.09 t-2.08 -5.35 q0.02 -3.26 2.04 -5.32 t5.28 -2.12 z M279.436 5.84 l0 10.14 q0 2.3 -0.98 3.34 t-2.9 1.04 q-1.46 0 -2.41 -0.76 t-1.27 -2.14 l1.32 -0.24 q0.48 1.94 2.36 1.94 q1.32 0 1.94 -0.8 t0.62 -2.12 l0 -10.4 l1.32 0 z M302.644 5.84 l0 1.2 l-7.34 0 l0 5.04 l6.88 0 l0 1.2 l-6.88 0 l0 5.52 l7.66 0 l0 1.2 l-8.98 0 l0 -14.16 l8.66 0 z M322.912 5.48 q3.14 0 4.88 2.22 l-1.08 0.9 q-0.6 -0.9 -1.6 -1.41 t-2.2 -0.51 q-2.64 0 -4.3 1.74 t-1.7 4.5 q0 2.74 1.67 4.47 t4.33 1.77 q1.14 0 2.32 -0.57 t1.86 -1.63 l1.08 0.82 q-1.88 2.58 -5.26 2.58 q-3.28 -0.02 -5.27 -2.12 t-2.05 -5.32 q0 -3.26 2.05 -5.33 t5.27 -2.11 z M350.56 5.84 l0 1.2 l-4.84 0 l0 12.96 l-1.32 0 l0 -12.96 l-4.84 0 l0 -1.2 l11 0 z M364.06800000000004 18.2 q0.4 0 0.68 0.28 t0.28 0.68 t-0.28 0.68 t-0.68 0.28 t-0.68 -0.28 t-0.28 -0.68 t0.28 -0.68 t0.68 -0.28 z"/>
  </g>
</svg>